<svg width="33" height="33" viewBox="0 0 33 33" fill="none" xmlns="http://www.w3.org/2000/svg">
<rect x="0.701172" y="0.455078" width="32" height="32" rx="7" fill="url(#paint0_linear_3941_6611)"/>
<path d="M11.5908 23.7271V9.18164H16.7755C17.9071 9.18164 18.8446 9.38761 19.588 9.79954C20.3314 10.2115 20.8877 10.7749 21.257 11.4899C21.6263 12.2001 21.811 13.0003 21.811 13.8904C21.811 14.7853 21.624 15.5903 21.2499 16.3052C20.8806 17.0154 20.3219 17.5789 19.5738 17.9956C18.8304 18.4075 17.8953 18.6135 16.7684 18.6135H13.203V16.7527H16.5695C17.2845 16.7527 17.8645 16.6296 18.3096 16.3833C18.7546 16.1324 19.0814 15.7915 19.2897 15.3606C19.498 14.9297 19.6022 14.4397 19.6022 13.8904C19.6022 13.3412 19.498 12.8535 19.2897 12.4274C19.0814 12.0012 18.7523 11.6674 18.3025 11.426C17.8574 11.1845 17.2703 11.0637 16.5411 11.0637H13.7854V23.7271H11.5908Z" fill="#FFF623"/>
<defs>
<linearGradient id="paint0_linear_3941_6611" x1="19.9532" y1="0.455078" x2="19.9555" y2="52.4548" gradientUnits="userSpaceOnUse">
<stop stop-color="#3A3A3C"/>
<stop offset="1" stop-color="#161618"/>
</linearGradient>
</defs>
</svg>
