<svg width="14" height="15" viewBox="0 0 14 15" fill="none" xmlns="http://www.w3.org/2000/svg">
<g clip-path="url(#clip0_4300_4122)">
<path d="M13 7.5C13 4.18629 10.3137 1.5 7 1.5C3.68629 1.5 1 4.18629 1 7.5C1 10.8137 3.68629 13.5 7 13.5C10.3137 13.5 13 10.8137 13 7.5Z" stroke="#FFE605" stroke-width="2"/>
<path d="M7 7.5V4C7.92826 4 8.8185 4.36875 9.47487 5.02513C10.1313 5.6815 10.5 6.57174 10.5 7.5C10.5 8.42826 10.1313 9.3185 9.47487 9.97487C8.8185 10.6313 7.92826 11 7 11V7.5Z" fill="#FFE605"/>
</g>
<defs>
<clipPath id="clip0_4300_4122">
<rect width="14" height="14" fill="white" transform="translate(0 0.5)"/>
</clipPath>
</defs>
</svg>
